<svg width="36" height="36" viewBox="0 0 36 36" fill="none" xmlns="http://www.w3.org/2000/svg">
<g clip-path="url(#clip0_321_5385)">
<path d="M13.5 0H7.5C5.51088 0 3.60322 0.790176 2.1967 2.1967C0.790176 3.60322 0 5.51088 0 7.5L0 28.5C0 29.4849 0.193993 30.4602 0.570903 31.3701C0.947814 32.2801 1.50026 33.1069 2.1967 33.8033C3.60322 35.2098 5.51088 36 7.5 36H21V7.5C21 6.51509 20.806 5.53982 20.4291 4.62987C20.0522 3.71993 19.4997 2.89314 18.8033 2.1967C18.1069 1.50026 17.2801 0.947814 16.3701 0.570903C15.4602 0.193993 14.4849 0 13.5 0ZM7.5 28.5H6C5.60218 28.5 5.22064 28.342 4.93934 28.0607C4.65804 27.7794 4.5 27.3978 4.5 27C4.5 26.6022 4.65804 26.2206 4.93934 25.9393C5.22064 25.658 5.60218 25.5 6 25.5H7.5C7.89782 25.5 8.27936 25.658 8.56066 25.9393C8.84196 26.2206 9 26.6022 9 27C9 27.3978 8.84196 27.7794 8.56066 28.0607C8.27936 28.342 7.89782 28.5 7.5 28.5ZM7.5 22.5H6C5.60218 22.5 5.22064 22.342 4.93934 22.0607C4.65804 21.7794 4.5 21.3978 4.5 21C4.5 20.6022 4.65804 20.2206 4.93934 19.9393C5.22064 19.658 5.60218 19.5 6 19.5H7.5C7.89782 19.5 8.27936 19.658 8.56066 19.9393C8.84196 20.2206 9 20.6022 9 21C9 21.3978 8.84196 21.7794 8.56066 22.0607C8.27936 22.342 7.89782 22.5 7.5 22.5ZM7.5 16.5H6C5.60218 16.5 5.22064 16.342 4.93934 16.0607C4.65804 15.7794 4.5 15.3978 4.5 15C4.5 14.6022 4.65804 14.2206 4.93934 13.9393C5.22064 13.658 5.60218 13.5 6 13.5H7.5C7.89782 13.5 8.27936 13.658 8.56066 13.9393C8.84196 14.2206 9 14.6022 9 15C9 15.3978 8.84196 15.7794 8.56066 16.0607C8.27936 16.342 7.89782 16.5 7.5 16.5ZM7.5 10.5H6C5.60218 10.5 5.22064 10.342 4.93934 10.0607C4.65804 9.77936 4.5 9.39782 4.5 9C4.5 8.60218 4.65804 8.22064 4.93934 7.93934C5.22064 7.65804 5.60218 7.5 6 7.5H7.5C7.89782 7.5 8.27936 7.65804 8.56066 7.93934C8.84196 8.22064 9 8.60218 9 9C9 9.39782 8.84196 9.77936 8.56066 10.0607C8.27936 10.342 7.89782 10.5 7.5 10.5ZM15 28.5H13.5C13.1022 28.5 12.7206 28.342 12.4393 28.0607C12.158 27.7794 12 27.3978 12 27C12 26.6022 12.158 26.2206 12.4393 25.9393C12.7206 25.658 13.1022 25.5 13.5 25.5H15C15.3978 25.5 15.7794 25.658 16.0607 25.9393C16.342 26.2206 16.5 26.6022 16.5 27C16.5 27.3978 16.342 27.7794 16.0607 28.0607C15.7794 28.342 15.3978 28.5 15 28.5ZM15 22.5H13.5C13.1022 22.5 12.7206 22.342 12.4393 22.0607C12.158 21.7794 12 21.3978 12 21C12 20.6022 12.158 20.2206 12.4393 19.9393C12.7206 19.658 13.1022 19.5 13.5 19.5H15C15.3978 19.5 15.7794 19.658 16.0607 19.9393C16.342 20.2206 16.5 20.6022 16.5 21C16.5 21.3978 16.342 21.7794 16.0607 22.0607C15.7794 22.342 15.3978 22.5 15 22.5ZM15 16.5H13.5C13.1022 16.5 12.7206 16.342 12.4393 16.0607C12.158 15.7794 12 15.3978 12 15C12 14.6022 12.158 14.2206 12.4393 13.9393C12.7206 13.658 13.1022 13.5 13.5 13.5H15C15.3978 13.5 15.7794 13.658 16.0607 13.9393C16.342 14.2206 16.5 14.6022 16.5 15C16.5 15.3978 16.342 15.7794 16.0607 16.0607C15.7794 16.342 15.3978 16.5 15 16.5ZM15 10.5H13.5C13.1022 10.5 12.7206 10.342 12.4393 10.0607C12.158 9.77936 12 9.39782 12 9C12 8.60218 12.158 8.22064 12.4393 7.93934C12.7206 7.65804 13.1022 7.5 13.5 7.5H15C15.3978 7.5 15.7794 7.65804 16.0607 7.93934C16.342 8.22064 16.5 8.60218 16.5 9C16.5 9.39782 16.342 9.77936 16.0607 10.0607C15.7794 10.342 15.3978 10.5 15 10.5ZM28.5 7.5H24V36H28.5C30.4884 35.9976 32.3947 35.2067 33.8007 33.8007C35.2067 32.3947 35.9976 30.4884 36 28.5V15C35.9976 13.0116 35.2067 11.1053 33.8007 9.69933C32.3947 8.29332 30.4884 7.50238 28.5 7.5ZM30 28.5C29.7033 28.5 29.4133 28.412 29.1666 28.2472C28.92 28.0824 28.7277 27.8481 28.6142 27.574C28.5006 27.2999 28.4709 26.9983 28.5288 26.7074C28.5867 26.4164 28.7296 26.1491 28.9393 25.9393C29.1491 25.7296 29.4164 25.5867 29.7074 25.5288C29.9983 25.4709 30.2999 25.5006 30.574 25.6142C30.8481 25.7277 31.0824 25.92 31.2472 26.1666C31.412 26.4133 31.5 26.7033 31.5 27C31.5 27.3978 31.342 27.7794 31.0607 28.0607C30.7794 28.342 30.3978 28.5 30 28.5ZM30 22.5C29.7033 22.5 29.4133 22.412 29.1666 22.2472C28.92 22.0824 28.7277 21.8481 28.6142 21.574C28.5006 21.2999 28.4709 20.9983 28.5288 20.7074C28.5867 20.4164 28.7296 20.1491 28.9393 19.9393C29.1491 19.7296 29.4164 19.5867 29.7074 19.5288C29.9983 19.4709 30.2999 19.5006 30.574 19.6142C30.8481 19.7277 31.0824 19.92 31.2472 20.1666C31.412 20.4133 31.5 20.7033 31.5 21C31.5 21.3978 31.342 21.7794 31.0607 22.0607C30.7794 22.342 30.3978 22.5 30 22.5ZM30 16.5C29.7033 16.5 29.4133 16.412 29.1666 16.2472C28.92 16.0824 28.7277 15.8481 28.6142 15.574C28.5006 15.2999 28.4709 14.9983 28.5288 14.7074C28.5867 14.4164 28.7296 14.1491 28.9393 13.9393C29.1491 13.7296 29.4164 13.5867 29.7074 13.5288C29.9983 13.4709 30.2999 13.5006 30.574 13.6142C30.8481 13.7277 31.0824 13.92 31.2472 14.1666C31.412 14.4133 31.5 14.7033 31.5 15C31.5 15.3978 31.342 15.7794 31.0607 16.0607C30.7794 16.342 30.3978 16.5 30 16.5Z" fill="#FF8D41"/>
</g>
<defs>
<clipPath id="clip0_321_5385">
<rect width="36" height="36" fill="white"/>
</clipPath>
</defs>
</svg>
