<svg width="36" height="36" viewBox="0 0 36 36" fill="none" xmlns="http://www.w3.org/2000/svg">
<g clip-path="url(#clip0_321_5409)">
<path d="M12.4373 5.5635C12.4373 7.461 10.8983 9 9.0008 9C7.1033 9 5.5643 7.461 5.5643 5.5635C5.5643 4.467 6.7133 2.3415 7.6823 0.7425C8.2823 -0.2475 9.7193 -0.2475 10.3193 0.7425C11.2883 2.34 12.4373 4.4655 12.4373 5.5635ZM22.4843 36C29.4323 36 35.2583 32.2425 35.9933 24.222C36.0833 23.2485 35.2538 22.416 34.2818 22.5255C27.6818 23.2725 22.4828 28.26 22.4828 36M22.4828 36C15.5348 36 9.7418 32.2215 9.0053 24.201C8.9153 23.2275 9.7448 22.395 10.7168 22.5045C17.3168 23.2515 22.4828 28.26 22.4828 36ZM17.4443 21.543C18.0293 18.7965 19.2833 16.5 21.1523 14.139C21.8288 13.284 23.1308 13.284 23.8073 14.139C25.6913 16.518 26.9513 18.831 27.5483 21.5565C25.5203 22.68 23.8058 24.2055 22.4903 26.0625C21.1793 24.1995 19.4678 22.671 17.4443 21.543ZM6.0173 24.4725C5.8913 23.1 6.3863 21.7575 7.3733 20.7915C8.3528 19.8315 9.6923 19.3665 11.0528 19.521C12.3173 19.6635 13.5203 19.9275 14.6513 20.3025C15.1238 18.402 15.9248 16.5975 17.0513 14.7855C15.9863 13.113 14.1278 11.997 11.9978 11.997H5.9978C2.6843 11.997 -0.00219727 14.6835 -0.00219727 17.997V29.997C-0.00219727 33.3105 2.6843 35.997 5.9978 35.997H11.9978C12.0953 35.997 12.1868 35.973 12.2843 35.9685C8.7428 33.4425 6.4748 29.4585 6.0173 24.4725Z" fill="#FF8D41"/>
</g>
<defs>
<clipPath id="clip0_321_5409">
<rect width="36" height="36" fill="white"/>
</clipPath>
</defs>
</svg>
