<svg width="36" height="36" viewBox="0 0 36 36" fill="none" xmlns="http://www.w3.org/2000/svg">
<g clip-path="url(#clip0_321_5417)">
<path d="M34.9505 33.8566L28.2635 35.9326C27.8836 36.0508 27.4723 36.0132 27.1201 35.8281C26.7679 35.643 26.5037 35.3256 26.3855 34.9456C26.2674 34.5657 26.305 34.1544 26.4901 33.8022C26.6752 33.45 26.9926 33.1858 27.3725 33.0676L29.2385 32.4886L27.8615 28.4386C27.5725 28.4758 27.2815 28.4959 26.99 28.4986C25.3537 28.4952 23.7633 27.9568 22.4614 26.9653C21.1596 25.9738 20.2178 24.5838 19.7795 23.0071L19.589 22.4446L21.089 17.9971H33.9005L34.2005 18.9076C34.676 20.5229 34.5887 22.2518 33.9529 23.8109C33.317 25.3701 32.1705 26.667 30.701 27.4891L32.0975 31.5946L34.0475 30.9946C34.4275 30.8765 34.8388 30.9141 35.191 31.0992C35.5431 31.2843 35.8074 31.6017 35.9255 31.9816C36.0437 32.3616 36.0061 32.7729 35.821 33.1251C35.6359 33.4773 35.3185 33.7415 34.9385 33.8596L34.9505 33.8566ZM21.9845 15.0001H32.885L31.436 10.6981C31.0881 9.57697 30.3189 8.63443 29.2903 8.06877C28.2616 7.50311 27.0537 7.35842 25.9205 7.66514L20.6345 9.13814C20.8491 9.41014 21.045 9.69629 21.221 9.99464C22.0559 11.5216 22.3262 13.2938 21.9845 15.0001ZM15.8585 9.27614L10.079 7.66514C8.95415 7.35485 7.75278 7.49243 6.72716 8.04901C5.70155 8.60559 4.93145 9.53788 4.57854 10.6501L3.11754 15.0001H18.929L18.959 14.9116C19.1322 14.3381 19.1891 13.7358 19.1263 13.14C19.0636 12.5441 18.8825 11.9669 18.5938 11.442C18.305 10.9171 17.9143 10.4551 17.4446 10.0832C16.9749 9.71128 16.4357 9.4369 15.8585 9.27614ZM1.77804 18.9856C1.32207 20.598 1.42419 22.3172 2.06785 23.8642C2.7115 25.4113 3.85894 26.6955 5.32404 27.5086L3.90804 31.6006L1.95054 30.9916C1.76242 30.9325 1.56451 30.9111 1.36809 30.9285C1.17168 30.9459 0.980615 31.0018 0.805809 31.093C0.631003 31.1842 0.475878 31.309 0.349292 31.4602C0.222705 31.6114 0.127136 31.786 0.0680415 31.9741C0.00894668 32.1623 -0.0125168 32.3602 0.00487654 32.5566C0.0222699 32.753 0.0781794 32.9441 0.169413 33.1189C0.260647 33.2937 0.385417 33.4488 0.536602 33.5754C0.687786 33.702 0.862423 33.7975 1.05054 33.8566L7.73754 35.9326C8.11746 36.0508 8.52876 36.0132 8.88096 35.8281C9.23315 35.643 9.49739 35.3256 9.61554 34.9456C9.7337 34.5657 9.69609 34.1544 9.51099 33.8022C9.32589 33.45 9.00846 33.1858 8.62854 33.0676L6.77454 32.4901L8.17704 28.4401C8.45519 28.4759 8.73514 28.4959 9.01554 28.5001C10.6373 28.4961 12.2141 27.9666 13.5094 26.9908C14.8048 26.0151 15.7491 24.6458 16.2005 23.0881L17.918 18.0001H2.10954L1.77804 18.9856ZM23.33 5.85014C23.5071 5.93918 23.7001 5.99224 23.8979 6.00625C24.0956 6.02026 24.2941 5.99494 24.482 5.93175C24.6699 5.86857 24.8434 5.76877 24.9925 5.63813C25.1415 5.50749 25.2632 5.3486 25.3505 5.17064L26.8505 2.17064C27.0284 1.81459 27.0575 1.40247 26.9314 1.02496C26.8054 0.647452 26.5346 0.335466 26.1785 0.157638C25.8225 -0.0201893 25.4104 -0.049292 25.0329 0.0767325C24.6554 0.202757 24.3434 0.473585 24.1655 0.829638L22.6655 3.82964C22.576 4.00583 22.5221 4.19799 22.507 4.39507C22.492 4.59215 22.516 4.79027 22.5778 4.97803C22.6395 5.16579 22.7378 5.3395 22.8669 5.48916C22.996 5.63883 23.1534 5.76151 23.33 5.85014ZM10.658 5.17064C10.8359 5.52769 11.1482 5.79947 11.5265 5.9262C11.7137 5.98895 11.9115 6.01419 12.1086 6.0005C12.3056 5.98681 12.498 5.93444 12.6748 5.84639C12.8516 5.75834 13.0093 5.63633 13.1389 5.48732C13.2686 5.33832 13.3676 5.16524 13.4303 4.97797C13.4931 4.79069 13.5183 4.5929 13.5047 4.39587C13.491 4.19883 13.4386 4.00643 13.3505 3.82964L11.8505 0.829638C11.7625 0.653339 11.6406 0.496109 11.4918 0.366925C11.3429 0.237741 11.1701 0.139133 10.9832 0.0767325C10.6057 -0.049292 10.1936 -0.0201893 9.83754 0.157638C9.48149 0.335466 9.21066 0.647452 9.08463 1.02496C8.95861 1.40247 8.98771 1.81459 9.16554 2.17064L10.658 5.17064ZM18.0005 0.000138405C17.6027 0.000138405 17.2212 0.158174 16.9399 0.439478C16.6586 0.720783 16.5005 1.10231 16.5005 1.50014V4.50014C16.5005 4.89796 16.6586 5.27949 16.9399 5.5608C17.2212 5.8421 17.6027 6.00014 18.0005 6.00014C18.3984 6.00014 18.7799 5.8421 19.0612 5.5608C19.3425 5.27949 19.5005 4.89796 19.5005 4.50014V1.50014C19.5005 1.10231 19.3425 0.720783 19.0612 0.439478C18.7799 0.158174 18.3984 0.000138405 18.0005 0.000138405Z" fill="#FF8D41"/>
</g>
<defs>
<clipPath id="clip0_321_5417">
<rect width="36" height="36" fill="white"/>
</clipPath>
</defs>
</svg>
