<svg width="36" height="36" viewBox="0 0 36 36" fill="none" xmlns="http://www.w3.org/2000/svg">
<g clip-path="url(#clip0_321_5425)">
<path d="M34.4143 10.2556L31.1413 6.98107L32.5618 5.56057C32.705 5.4222 32.8193 5.25669 32.8979 5.07368C32.9765 4.89068 33.0179 4.69385 33.0196 4.49468C33.0214 4.29551 32.9834 4.09799 32.908 3.91364C32.8326 3.7293 32.7212 3.56182 32.5803 3.42098C32.4395 3.28014 32.272 3.16876 32.0877 3.09334C31.9033 3.01792 31.7058 2.97997 31.5067 2.9817C31.3075 2.98343 31.1107 3.02481 30.9276 3.10342C30.7446 3.18204 30.5791 3.29631 30.4408 3.43957L29.0203 4.86007L25.7458 1.58707C24.7137 0.603558 23.3427 0.0549316 21.917 0.0549316C20.4913 0.0549316 19.1203 0.603558 18.0883 1.58707C17.5851 2.08982 17.1859 2.6868 16.9136 3.34389C16.6413 4.00097 16.5011 4.70529 16.5011 5.41657C16.5011 6.12786 16.6413 6.83218 16.9136 7.48926C17.1859 8.14635 17.5851 8.74333 18.0883 9.24607L21.3613 12.5191L12.5203 21.3601L9.24575 18.0871C8.21366 17.1036 6.84267 16.5549 5.417 16.5549C3.99134 16.5549 2.62035 17.1036 1.58825 18.0871C1.08509 18.5898 0.685937 19.1868 0.413604 19.8439C0.141271 20.501 0.00109863 21.2053 0.00109863 21.9166C0.00109863 22.6279 0.141271 23.3322 0.413604 23.9893C0.685937 24.6463 1.08509 25.2433 1.58825 25.7461L4.86125 29.0191L3.44075 30.4396C3.29749 30.5779 3.18322 30.7435 3.1046 30.9265C3.02599 31.1095 2.98461 31.3063 2.98288 31.5055C2.98115 31.7046 3.0191 31.9022 3.09452 32.0865C3.16994 32.2708 3.28132 32.4383 3.42216 32.5792C3.563 32.72 3.73048 32.8314 3.91482 32.9068C4.09917 32.9822 4.29669 33.0202 4.49586 33.0184C4.69502 33.0167 4.89186 32.9753 5.07486 32.8967C5.25787 32.8181 5.42338 32.7038 5.56175 32.5606L6.98225 31.1401L10.2568 34.4131C10.7595 34.916 11.3564 35.315 12.0133 35.5872C12.6703 35.8594 13.3744 35.9995 14.0855 35.9995C14.7966 35.9995 15.5008 35.8594 16.1577 35.5872C16.8146 35.315 17.4115 34.916 17.9143 34.4131C18.4174 33.9104 18.8165 33.3136 19.0888 32.6566C19.3611 31.9997 19.5013 31.2955 19.5013 30.5843C19.5013 29.8732 19.3611 29.169 19.0888 28.512C18.8165 27.855 18.4174 27.2582 17.9143 26.7556L14.6413 23.4826L23.4913 14.6401L26.7643 17.9131C27.267 18.416 27.8639 18.815 28.5208 19.0872C29.1778 19.3594 29.8819 19.4995 30.593 19.4995C31.3041 19.4995 32.0083 19.3594 32.6652 19.0872C33.3221 18.815 33.919 18.416 34.4218 17.9131C34.9249 17.4105 35.324 16.8136 35.5963 16.1566C35.8686 15.4997 36.0088 14.7955 36.0088 14.0843C36.0088 13.3732 35.8686 12.669 35.5963 12.012C35.324 11.355 34.9249 10.7582 34.4218 10.2556H34.4143Z" fill="#FF8D41"/>
</g>
<defs>
<clipPath id="clip0_321_5425">
<rect width="36" height="36" fill="white"/>
</clipPath>
</defs>
</svg>
