<svg width="30" height="30" viewBox="0 0 30 30" fill="none" xmlns="http://www.w3.org/2000/svg">
<path d="M12.5 10C12.5 12.357 12.5 13.5355 11.7678 14.2677C11.0355 15 9.85703 15 7.5 15C5.14298 15 3.96446 15 3.23224 14.2677C2.5 13.5355 2.5 12.357 2.5 10C2.5 7.64298 2.5 6.46446 3.23224 5.73224C3.96446 5 5.14298 5 7.5 5C9.85703 5 11.0355 5 11.7678 5.73224C12.5 6.46446 12.5 7.64298 12.5 10Z" fill="#FF8D41" stroke="#FF8D41" stroke-width="1.5"/>
<path d="M12.5 8.75V14.3526C12.5 19.3184 9.35536 23.5296 5 25" stroke="#FF8D41" stroke-width="1.5" stroke-linecap="round"/>
<path d="M27.5 10C27.5 12.357 27.5 13.5355 26.7677 14.2677C26.0355 15 24.857 15 22.5 15C20.143 15 18.9645 15 18.2323 14.2677C17.5 13.5355 17.5 12.357 17.5 10C17.5 7.64298 17.5 6.46446 18.2323 5.73224C18.9645 5 20.143 5 22.5 5C24.857 5 26.0355 5 26.7677 5.73224C27.5 6.46446 27.5 7.64298 27.5 10Z" fill="#FF8D41" stroke="#FF8D41" stroke-width="1.5"/>
<path d="M27.5 8.75V14.3526C27.5 19.3184 24.3554 23.5296 20 25" stroke="#FF8D41" stroke-width="1.5" stroke-linecap="round"/>
</svg>
