<svg width="36" height="36" viewBox="0 0 36 36" fill="none" xmlns="http://www.w3.org/2000/svg">
<g clip-path="url(#clip0_321_5444)">
<path d="M33.0012 17.25C33.0012 16.8375 32.6652 16.5 32.2512 16.5H31.5012C30.6732 16.5 30.0012 15.8295 30.0012 15C30.0012 14.1705 30.6732 13.5 31.5012 13.5C31.9152 13.5 32.2512 13.1625 32.2512 12.75C32.2512 12.3375 31.9152 12 31.5012 12H28.5012C27.6732 12 27.0012 11.3295 27.0012 10.5C27.0012 9.67049 27.6732 8.99999 28.5012 8.99999H31.5012C33.5682 8.99999 35.2512 10.6815 35.2512 12.75C35.2512 13.386 35.0907 13.986 34.8102 14.5125C35.5422 15.1965 36.0012 16.17 36.0012 17.25C36.0012 19.3185 34.3182 21 32.2512 21H28.5012C27.6732 21 27.0012 20.3295 27.0012 19.5C27.0012 18.6705 27.6732 18 28.5012 18H32.2512C32.6652 18 33.0012 17.6625 33.0012 17.25ZM2.63667 11.4825C2.15067 11.745 1.69767 11.9895 1.32267 12.2175C0.286167 12.849 -0.204333 13.9065 0.0776669 14.91C0.347667 15.876 1.26567 16.5 2.41317 16.5H7.50117C8.32917 16.5 9.00117 15.8295 9.00117 15C9.00117 14.1705 8.32917 13.5 7.50117 13.5H5.19417C7.10067 12.4125 9.00117 11.046 9.00117 8.99999C9.00117 6.51899 6.98217 4.49999 4.50117 4.49999C2.02017 4.49999 0.00116695 6.51899 0.00116695 8.99999C0.00116695 9.82949 0.673167 10.5 1.50117 10.5C2.32917 10.5 3.00117 9.82949 3.00117 8.99999C3.00117 8.17049 3.67467 7.49999 4.50117 7.49999C5.32767 7.49999 6.00117 8.17199 6.00117 8.99999C6.00117 9.66599 3.46917 11.0325 2.63667 11.4825ZM16.0617 4.61999L16.5012 4.18049V10.5C16.5012 11.3295 17.1732 12 18.0012 12C18.8292 12 19.5012 11.3295 19.5012 10.5V2.16749C19.5012 1.28849 18.9762 0.50399 18.1647 0.16649C17.3517 -0.16951 16.4247 0.0134898 15.8037 0.63449L13.9407 2.49749C13.3542 3.08399 13.3542 4.03199 13.9407 4.61849C14.5272 5.20499 15.4767 5.20649 16.0617 4.61999ZM19.5012 15H16.5012C14.4297 15 12.7512 16.6785 12.7512 18.75V32.25C12.7512 34.3215 14.4297 36 16.5012 36H19.5012C21.5727 36 23.2512 34.3215 23.2512 32.25V18.75C23.2512 16.6785 21.5727 15 19.5012 15ZM32.2512 24H30.0012C27.9297 24 26.2512 25.6785 26.2512 27.75V32.25C26.2512 34.3215 27.9297 36 30.0012 36H32.2512C34.3227 36 36.0012 34.3215 36.0012 32.25V27.75C36.0012 25.6785 34.3227 24 32.2512 24ZM6.00117 19.5H3.75117C1.67967 19.5 0.00116695 21.1785 0.00116695 23.25V32.25C0.00116695 34.3215 1.67967 36 3.75117 36H6.00117C8.07267 36 9.75117 34.3215 9.75117 32.25V23.25C9.75117 21.1785 8.07267 19.5 6.00117 19.5Z" fill="white"/>
</g>
<defs>
<clipPath id="clip0_321_5444">
<rect width="36" height="36" fill="white"/>
</clipPath>
</defs>
</svg>
