<svg width="36" height="36" viewBox="0 0 36 36" fill="none" xmlns="http://www.w3.org/2000/svg">
<g clip-path="url(#clip0_321_5401)">
<path d="M35.5935 33.4711C35.8662 33.7611 36.0125 34.1476 36.0003 34.5455C35.9881 34.9434 35.8183 35.3202 35.5283 35.5929C35.2382 35.8656 34.8518 36.0119 34.4539 35.9997C34.056 35.9874 33.6792 35.8176 33.4065 35.5276L25.182 26.7691C23.628 26.8186 16.4715 27.0316 18.714 23.6491C18.9017 23.4583 19.1378 23.322 19.397 23.2549C19.6562 23.1878 19.9287 23.1923 20.1855 23.2681C21.8624 23.7883 23.6324 23.9367 25.3725 23.7031C25.6732 23.6646 25.9787 23.699 26.2633 23.8034C26.5479 23.9078 26.8031 24.0792 27.0075 24.3031L35.5935 33.4711ZM22.5 21.0001C23.4849 21.0015 24.4604 20.8085 25.3706 20.4322C26.2807 20.0559 27.1077 19.5036 27.804 18.8071L35.5605 11.0491C35.7 10.9099 35.8106 10.7445 35.8862 10.5624C35.9617 10.3804 36.0007 10.1853 36.0008 9.98818C36.001 9.79109 35.9623 9.5959 35.887 9.41376C35.8117 9.23161 35.7013 9.06609 35.562 8.92662C35.4227 8.78716 35.2574 8.67649 35.0753 8.60094C34.8933 8.52538 34.6982 8.48643 34.5011 8.48629C34.304 8.48615 34.1088 8.52483 33.9266 8.60013C33.7445 8.67542 33.579 8.78585 33.4395 8.92512L25.683 16.6831C25.0243 17.3361 24.1799 17.7696 23.2653 17.9242C22.3508 18.0789 21.4108 17.9472 20.574 17.5471L31.0605 7.06062C31.2038 6.92225 31.318 6.75673 31.3967 6.57373C31.4753 6.39072 31.5166 6.19389 31.5184 5.99472C31.5201 5.79556 31.4822 5.59804 31.4067 5.41369C31.3313 5.22935 31.2199 5.06187 31.0791 4.92103C30.9383 4.78019 30.7708 4.66881 30.5864 4.59339C30.4021 4.51797 30.2046 4.48002 30.0054 4.48175C29.8062 4.48348 29.6094 4.52486 29.4264 4.60347C29.2434 4.68208 29.0779 4.79636 28.9395 4.93962L18.45 15.4261C18.0499 14.5893 17.9182 13.6493 18.0729 12.7348C18.2275 11.8202 18.661 10.9758 19.314 10.3171L27.075 2.56062C27.3482 2.27772 27.4994 1.89882 27.496 1.50552C27.4926 1.11223 27.3348 0.736007 27.0567 0.457895C26.7786 0.179782 26.4024 0.022029 26.0091 0.0186114C25.6158 0.0151938 25.2369 0.166385 24.954 0.439622L17.196 8.19612C15.9761 9.42014 15.2153 11.0272 15.0419 12.7466C14.8684 14.4659 15.2927 16.1926 16.2435 17.6356L0.4395 33.4396C0.166263 33.7225 0.0150713 34.1014 0.0184889 34.4947C0.0219066 34.888 0.17966 35.2642 0.457772 35.5423C0.735884 35.8205 1.1121 35.9782 1.5054 35.9816C1.89869 35.985 2.2776 35.8339 2.5605 35.5606L18.3645 19.7566C19.5913 20.5676 21.0294 21 22.5 21.0001ZM8.178 19.4476C9.4215 20.6191 10.569 19.0636 11.4045 18.2311C11.7501 17.8817 12.0046 17.4528 12.1456 16.982C12.2865 16.5112 12.3097 16.013 12.213 15.5311C11.2875 12.9481 13.5495 9.93312 11.6775 7.85562L4.9935 0.859622C4.5812 0.459038 4.06061 0.187973 3.496 0.0798967C2.93139 -0.02818 2.3475 0.0314636 1.8164 0.251463C1.28531 0.471463 0.830271 0.842185 0.507476 1.31786C0.184681 1.79353 0.00826135 2.35332 0 2.92812C0.3555 9.84912 2.9025 13.3801 8.178 19.4476Z" fill="#FF8D41"/>
</g>
<defs>
<clipPath id="clip0_321_5401">
<rect width="36" height="36" fill="white"/>
</clipPath>
</defs>
</svg>
